<svg width="32" height="32" viewBox="0 0 32 32" fill="none" xmlns="http://www.w3.org/2000/svg">
<path d="M25.7074 18.7075L16.7074 27.7075C16.6146 27.8005 16.5043 27.8742 16.3829 27.9246C16.2615 27.9749 16.1314 28.0008 15.9999 28.0008C15.8685 28.0008 15.7384 27.9749 15.617 27.9246C15.4956 27.8742 15.3853 27.8005 15.2924 27.7075L6.29245 18.7075C6.1048 18.5199 5.99939 18.2654 5.99939 18C5.99939 17.7346 6.1048 17.4801 6.29245 17.2925C6.48009 17.1049 6.73458 16.9994 6.99995 16.9994C7.26531 16.9994 7.5198 17.1049 7.70745 17.2925L14.9999 24.5863V5C14.9999 4.73478 15.1053 4.48043 15.2928 4.29289C15.4804 4.10536 15.7347 4 15.9999 4C16.2652 4 16.5195 4.10536 16.7071 4.29289C16.8946 4.48043 16.9999 4.73478 16.9999 5V24.5863L24.2924 17.2925C24.4801 17.1049 24.7346 16.9994 24.9999 16.9994C25.2653 16.9994 25.5198 17.1049 25.7074 17.2925C25.8951 17.4801 26.0005 17.7346 26.0005 18C26.0005 18.2654 25.8951 18.5199 25.7074 18.7075Z" fill="white"/>
</svg>
