<svg width="132" height="122" viewBox="0 0 132 122" fill="none" xmlns="http://www.w3.org/2000/svg">
<path d="M32.8125 23.4375V4.6875C32.8125 3.4443 33.3064 2.25201 34.1854 1.37294C35.0645 0.49386 36.2568 0 37.5 0C38.7432 0 39.9355 0.49386 40.8146 1.37294C41.6936 2.25201 42.1875 3.4443 42.1875 4.6875V23.4375C42.1875 24.6807 41.6936 25.873 40.8146 26.7521C39.9355 27.6311 38.7432 28.125 37.5 28.125C36.2568 28.125 35.0645 27.6311 34.1854 26.7521C33.3064 25.873 32.8125 24.6807 32.8125 23.4375ZM56.25 28.125C57.4932 28.125 58.6855 27.6311 59.5646 26.7521C60.4436 25.873 60.9375 24.6807 60.9375 23.4375V4.6875C60.9375 3.4443 60.4436 2.25201 59.5646 1.37294C58.6855 0.49386 57.4932 0 56.25 0C55.0068 0 53.8145 0.49386 52.9354 1.37294C52.0564 2.25201 51.5625 3.4443 51.5625 4.6875V23.4375C51.5625 24.6807 52.0564 25.873 52.9354 26.7521C53.8145 27.6311 55.0068 28.125 56.25 28.125ZM75 28.125C76.2432 28.125 77.4355 27.6311 78.3146 26.7521C79.1936 25.873 79.6875 24.6807 79.6875 23.4375V4.6875C79.6875 3.4443 79.1936 2.25201 78.3146 1.37294C77.4355 0.49386 76.2432 0 75 0C73.7568 0 72.5645 0.49386 71.6854 1.37294C70.8064 2.25201 70.3125 3.4443 70.3125 4.6875V23.4375C70.3125 24.6807 70.8064 25.873 71.6854 26.7521C72.5645 27.6311 73.7568 28.125 75 28.125ZM131.25 60.9375V65.625C131.248 71.5872 128.974 77.3246 124.891 81.6691C120.808 86.0136 115.222 88.6386 109.271 89.0098C106.074 98.0541 100.63 106.137 93.4512 112.5H107.812C109.056 112.5 110.248 112.994 111.127 113.873C112.006 114.752 112.5 115.944 112.5 117.188C112.5 118.431 112.006 119.623 111.127 120.502C110.248 121.381 109.056 121.875 107.812 121.875H4.6875C3.4443 121.875 2.25201 121.381 1.37294 120.502C0.49386 119.623 0 118.431 0 117.188C0 115.944 0.49386 114.752 1.37294 113.873C2.25201 112.994 3.4443 112.5 4.6875 112.5H19.0664C13.0857 107.216 8.29392 100.724 5.00729 93.4517C1.72067 86.1795 0.0140089 78.2929 0 70.3125V42.1875C0 40.9443 0.49386 39.752 1.37294 38.8729C2.25201 37.9939 3.4443 37.5 4.6875 37.5H107.812C114.029 37.5 119.99 39.9693 124.385 44.3647C128.781 48.7601 131.25 54.7215 131.25 60.9375ZM103.125 46.875H9.375V70.3125C9.39307 79.1137 11.8803 87.7333 16.5539 95.1912C21.2275 102.649 27.8999 108.646 35.8125 112.5H76.6875C84.6001 108.646 91.2725 102.649 95.9461 95.1912C100.62 87.7333 103.107 79.1137 103.125 70.3125V46.875ZM121.875 60.9375C121.874 58.0302 120.972 55.1946 119.293 52.8211C117.614 50.4475 115.241 48.6527 112.5 47.6836V70.3125C112.496 73.2561 112.261 76.1948 111.797 79.1016C114.705 78.2423 117.258 76.4658 119.074 74.0371C120.89 71.6085 121.873 68.6577 121.875 65.625V60.9375Z" fill="#FFF4D8"/>
</svg>
