<svg width="122" height="104" viewBox="0 0 122 104" fill="none" xmlns="http://www.w3.org/2000/svg">
<path d="M112.5 0H9.375C6.8886 0 4.50403 0.98772 2.74587 2.74587C0.98772 4.50403 0 6.8886 0 9.375V93.75C0 96.2364 0.98772 98.621 2.74587 100.379C4.50403 102.137 6.8886 103.125 9.375 103.125H17.2207C18.1079 103.125 18.9769 102.874 19.7268 102.4C20.4767 101.926 21.0767 101.249 21.457 100.447C23.7364 95.6348 27.3352 91.5684 31.8348 88.7208C36.3345 85.8732 41.55 84.3615 46.875 84.3615C52.2 84.3615 57.4155 85.8732 61.9152 88.7208C66.4148 91.5684 70.0136 95.6348 72.293 100.447C72.6733 101.249 73.2733 101.926 74.0232 102.4C74.7731 102.874 75.6422 103.125 76.5293 103.125H112.5C114.986 103.125 117.371 102.137 119.129 100.379C120.887 98.621 121.875 96.2364 121.875 93.75V9.375C121.875 6.8886 120.887 4.50403 119.129 2.74587C117.371 0.98772 114.986 0 112.5 0ZM32.8125 60.9375C32.8125 58.1562 33.6373 55.4374 35.1825 53.1248C36.7277 50.8122 38.9239 49.0098 41.4935 47.9454C44.0631 46.8811 46.8906 46.6026 49.6185 47.1452C52.3463 47.6878 54.852 49.0271 56.8187 50.9938C58.7854 52.9605 60.1247 55.4662 60.6673 58.194C61.2099 60.9219 60.9314 63.7494 59.8671 66.319C58.8027 68.8886 57.0003 71.0848 54.6877 72.63C52.3751 74.1753 49.6563 75 46.875 75C43.1454 75 39.5685 73.5184 36.9313 70.8812C34.2941 68.244 32.8125 64.6671 32.8125 60.9375ZM112.5 93.75H79.3535C75.4391 87.0201 69.5385 81.6659 62.4609 78.4219C66.0093 75.2624 68.5136 71.0991 69.642 66.4838C70.7703 61.8686 70.4693 57.0195 68.779 52.5792C67.0886 48.1389 64.0887 44.3172 60.1769 41.6207C56.2651 38.9242 51.6261 37.4802 46.875 37.4802C42.1239 37.4802 37.4849 38.9242 33.5731 41.6207C29.6613 44.3172 26.6614 48.1389 24.971 52.5792C23.2807 57.0195 22.9797 61.8686 24.108 66.4838C25.2364 71.0991 27.7407 75.2624 31.2891 78.4219C24.2115 81.6659 18.3109 87.0201 14.3965 93.75H9.375V9.375H112.5V93.75ZM18.75 32.8125V23.4375C18.75 22.1943 19.2439 21.002 20.1229 20.1229C21.002 19.2439 22.1943 18.75 23.4375 18.75H98.4375C99.6807 18.75 100.873 19.2439 101.752 20.1229C102.631 21.002 103.125 22.1943 103.125 23.4375V79.6875C103.125 80.9307 102.631 82.123 101.752 83.0021C100.873 83.8811 99.6807 84.375 98.4375 84.375H89.0625C87.8193 84.375 86.627 83.8811 85.7479 83.0021C84.8689 82.123 84.375 80.9307 84.375 79.6875C84.375 78.4443 84.8689 77.252 85.7479 76.3729C86.627 75.4939 87.8193 75 89.0625 75H93.75V28.125H28.125V32.8125C28.125 34.0557 27.6311 35.248 26.7521 36.1271C25.873 37.0061 24.6807 37.5 23.4375 37.5C22.1943 37.5 21.002 37.0061 20.1229 36.1271C19.2439 35.248 18.75 34.0557 18.75 32.8125Z" fill="#FFF4D8"/>
</svg>
