<svg width="104" height="127" viewBox="0 0 104 127" fill="none" xmlns="http://www.w3.org/2000/svg">
<path d="M75 79.6867C75 80.9299 74.5061 82.1221 73.6271 83.0012C72.748 83.8803 71.5557 84.3742 70.3125 84.3742H32.8125C31.5693 84.3742 30.377 83.8803 29.4979 83.0012C28.6189 82.1221 28.125 80.9299 28.125 79.6867C28.125 78.4435 28.6189 77.2512 29.4979 76.3721C30.377 75.493 31.5693 74.9992 32.8125 74.9992H70.3125C71.5557 74.9992 72.748 75.493 73.6271 76.3721C74.5061 77.2512 75 78.4435 75 79.6867ZM70.3125 56.2491H32.8125C31.5693 56.2491 30.377 56.743 29.4979 57.6221C28.6189 58.5012 28.125 59.6934 28.125 60.9366C28.125 62.1799 28.6189 63.3721 29.4979 64.2512C30.377 65.1303 31.5693 65.6242 32.8125 65.6242H70.3125C71.5557 65.6242 72.748 65.1303 73.6271 64.2512C74.5061 63.3721 75 62.1799 75 60.9366C75 59.6934 74.5061 58.5012 73.6271 57.6221C72.748 56.743 71.5557 56.2491 70.3125 56.2491ZM103.125 18.7492V117.187C103.125 119.673 102.137 122.058 100.379 123.816C98.621 125.574 96.2364 126.562 93.75 126.562H9.375C6.8886 126.562 4.50403 125.574 2.74587 123.816C0.98772 122.058 0 119.673 0 117.187V18.7492C0 16.2627 0.98772 13.8782 2.74587 12.12C4.50403 10.3619 6.8886 9.37415 9.375 9.37415H30.6211C33.2549 6.42527 36.4818 4.06589 40.0906 2.45047C43.6994 0.835044 47.6087 0 51.5625 0C55.5163 0 59.4256 0.835044 63.0344 2.45047C66.6432 4.06589 69.8701 6.42527 72.5039 9.37415H93.75C96.2364 9.37415 98.621 10.3619 100.379 12.12C102.137 13.8782 103.125 16.2627 103.125 18.7492ZM32.8125 28.1242H70.3125C70.3125 23.1513 68.3371 18.3822 64.8207 14.8659C61.3044 11.3496 56.5353 9.37415 51.5625 9.37415C46.5897 9.37415 41.8206 11.3496 38.3042 14.8659C34.7879 18.3822 32.8125 23.1513 32.8125 28.1242ZM93.75 18.7492H78.0762C79.1425 21.7598 79.6874 24.9303 79.6875 28.1242V32.8116C79.6875 34.0549 79.1936 35.2471 78.3146 36.1262C77.4355 37.0053 76.2432 37.4991 75 37.4991H28.125C26.8818 37.4991 25.6895 37.0053 24.8104 36.1262C23.9314 35.2471 23.4375 34.0549 23.4375 32.8116V28.1242C23.4376 24.9303 23.9825 21.7598 25.0488 18.7492H9.375V117.187H93.75V18.7492Z" fill="#FFF4D8"/>
</svg>
