<svg width="70" height="70" viewBox="0 0 70 70" fill="none" xmlns="http://www.w3.org/2000/svg">
<circle cx="35" cy="35" r="35" fill="white" fill-opacity="0.3"/>
<path d="M31 46C31 46.3956 30.8827 46.7822 30.6629 47.1111C30.4432 47.44 30.1308 47.6964 29.7654 47.8478C29.3999 47.9991 28.9978 48.0387 28.6098 47.9616C28.2219 47.8844 27.8655 47.6939 27.5858 47.4142C27.3061 47.1345 27.1156 46.7781 27.0384 46.3902C26.9613 46.0022 27.0009 45.6001 27.1522 45.2346C27.3036 44.8692 27.56 44.5568 27.8889 44.3371C28.2178 44.1173 28.6044 44 29 44C29.5304 44 30.0391 44.2107 30.4142 44.5858C30.7893 44.9609 31 45.4696 31 46ZM42 44C41.6044 44 41.2178 44.1173 40.8889 44.3371C40.56 44.5568 40.3036 44.8692 40.1522 45.2346C40.0009 45.6001 39.9613 46.0022 40.0384 46.3902C40.1156 46.7781 40.3061 47.1345 40.5858 47.4142C40.8655 47.6939 41.2219 47.8844 41.6098 47.9616C41.9978 48.0387 42.3999 47.9991 42.7654 47.8478C43.1308 47.6964 43.4432 47.44 43.6629 47.1111C43.8827 46.7822 44 46.3956 44 46C44 45.4696 43.7893 44.9609 43.4142 44.5858C43.0391 44.2107 42.5304 44 42 44ZM47.9562 28.2937L44.39 39.8825C44.2032 40.4968 43.8234 41.0346 43.3068 41.416C42.7903 41.7975 42.1646 42.0022 41.5225 42H29.5087C28.8575 41.9976 28.2245 41.7842 27.7046 41.3919C27.1848 40.9996 26.806 40.4494 26.625 39.8237L22.1025 24H20C19.7348 24 19.4804 23.8946 19.2929 23.7071C19.1054 23.5196 19 23.2652 19 23C19 22.7348 19.1054 22.4804 19.2929 22.2929C19.4804 22.1054 19.7348 22 20 22H22.1025C22.5368 22.0014 22.9589 22.1435 23.3057 22.4049C23.6525 22.6663 23.9053 23.0329 24.0262 23.45L25.04 27H47C47.1565 26.9999 47.3108 27.0366 47.4505 27.1071C47.5903 27.1775 47.7115 27.2798 47.8045 27.4056C47.8976 27.5315 47.9597 27.6774 47.9861 27.8316C48.0124 27.9859 48.0022 28.1442 47.9562 28.2937ZM45.6462 29H25.6112L28.5475 39.275C28.6072 39.4839 28.7334 39.6676 28.9068 39.7984C29.0802 39.9292 29.2915 40 29.5087 40H41.5225C41.7365 40.0001 41.9448 39.9315 42.117 39.8044C42.2891 39.6773 42.4159 39.4983 42.4788 39.2938L45.6462 29Z" fill="white"/>
</svg>
