<svg width="132" height="99" viewBox="0 0 132 99" fill="none" xmlns="http://www.w3.org/2000/svg">
<path d="M72.6585 91.4138C72.6585 92.8045 72.2461 94.1639 71.4735 95.3202C70.7009 96.4765 69.6027 97.3777 68.318 97.9099C67.0332 98.4421 65.6194 98.5813 64.2555 98.31C62.8916 98.0387 61.6387 97.369 60.6554 96.3857C59.672 95.4024 59.0024 94.1495 58.7311 92.7856C58.4598 91.4217 58.599 90.0079 59.1312 88.7231C59.6634 87.4383 60.5646 86.3402 61.7209 85.5676C62.8772 84.795 64.2366 84.3826 65.6272 84.3826C67.492 84.3826 69.2804 85.1234 70.5991 86.442C71.9177 87.7606 72.6585 89.549 72.6585 91.4138ZM129.541 22.8592C111.521 8.07818 88.9342 0 65.6272 0C42.3202 0 19.7337 8.07818 1.71316 22.8592C1.23724 23.25 0.842981 23.7308 0.55288 24.2741C0.26278 24.8174 0.0825232 25.4124 0.0224009 26.0254C-0.0377215 26.6383 0.0234687 27.257 0.202478 27.8463C0.381487 28.4356 0.674809 28.9838 1.0657 29.4597C1.45658 29.9357 1.93738 30.3299 2.48064 30.62C3.0239 30.9101 3.61897 31.0904 4.2319 31.1505C5.46975 31.2719 6.70513 30.8966 7.66628 30.1072C24.0093 16.7051 44.4917 9.38074 65.6272 9.38074C86.7627 9.38074 107.245 16.7051 123.588 30.1072C124.549 30.8966 125.785 31.2719 127.023 31.1505C128.26 31.0291 129.399 30.4209 130.189 29.4597C130.978 28.4986 131.353 27.2632 131.232 26.0254C131.111 24.7875 130.502 23.6486 129.541 22.8592ZM110.744 43.8181C97.9085 33.6558 82.0166 28.1264 65.6448 28.1264C49.273 28.1264 33.3811 33.6558 20.5452 43.8181C19.5708 44.5905 18.9432 45.7183 18.8003 46.9534C18.6575 48.1885 19.0111 49.4297 19.7835 50.4041C20.5558 51.3784 21.6836 52.0061 22.9187 52.1489C24.1538 52.2918 25.395 51.9381 26.3694 51.1658C37.5483 42.3171 51.3877 37.5027 65.6448 37.5027C79.9019 37.5027 93.7413 42.3171 104.92 51.1658C105.403 51.5483 105.956 51.832 106.548 52.0007C107.14 52.1694 107.759 52.2199 108.371 52.1491C108.983 52.0784 109.574 51.8879 110.112 51.5885C110.65 51.289 111.124 50.8866 111.506 50.4041C111.889 49.9216 112.172 49.3686 112.341 48.7765C112.51 48.1844 112.56 47.5649 112.489 46.9533C112.419 46.3418 112.228 45.7501 111.929 45.2122C111.629 44.6742 111.227 44.2005 110.744 43.8181ZM91.8421 64.7713C84.228 59.2377 75.0573 56.2572 65.6448 56.2572C56.2323 56.2572 47.0616 59.2377 39.4475 64.7713C38.4421 65.5032 37.7686 66.6046 37.5752 67.8331C37.3818 69.0616 37.6843 70.3166 38.4163 71.3221C39.1482 72.3275 40.2496 73.001 41.4781 73.1944C42.7066 73.3878 43.9616 73.0852 44.9671 72.3533C50.9759 67.9833 58.2149 65.6293 65.6448 65.6293C73.0747 65.6293 80.3137 67.9833 86.3225 72.3533C86.8204 72.7157 87.3847 72.9765 87.9834 73.1208C88.582 73.2652 89.2032 73.2902 89.8115 73.1944C90.4198 73.0986 91.0033 72.884 91.5286 72.5627C92.054 72.2415 92.5109 71.8199 92.8733 71.3221C93.2357 70.8242 93.4965 70.2599 93.6409 69.6612C93.7852 69.0626 93.8102 68.4414 93.7144 67.8331C93.6186 67.2248 93.404 66.6413 93.0827 66.116C92.7615 65.5906 92.3399 65.1337 91.8421 64.7713Z" fill="#FFF4D8"/>
</svg>
